<svg width="24" height="20" viewBox="0 0 24 20" fill="none" xmlns="http://www.w3.org/2000/svg">
<path fill-rule="evenodd" clip-rule="evenodd" d="M12 3.8125C7.90044 3.8125 4.4375 6.01663 4.4375 8.625C4.4375 8.81475 4.5915 8.96875 4.78125 8.96875C4.971 8.96875 5.125 8.81475 5.125 8.625C5.125 6.42775 8.33769 4.5 12 4.5C12.1891 4.5 12.3438 4.346 12.3438 4.15625C12.3438 3.9665 12.1898 3.8125 12 3.8125Z" fill="#232F3E"/>
<path fill-rule="evenodd" clip-rule="evenodd" d="M12 0.375C5.92456 0.375 1 4.06894 1 8.625C1 11.4623 2.91056 13.9641 5.818 15.4491C5.818 15.4677 5.8125 15.4801 5.8125 15.5C5.8125 16.7327 4.89194 18.0596 4.487 18.756C4.48769 18.756 4.48837 18.756 4.48837 18.756C4.45606 18.8316 4.4375 18.9148 4.4375 19.0021C4.4375 19.3459 4.71594 19.625 5.06038 19.625C5.125 19.625 5.23844 19.6078 5.23569 19.6154C7.38412 19.2634 9.40812 17.2896 9.87838 16.7176C10.5652 16.8186 11.2733 16.875 12 16.875C18.0741 16.875 23 13.1811 23 8.625C23 4.06894 18.0748 0.375 12 0.375ZM12 15.5C11.3696 15.5 10.7226 15.4519 10.0778 15.3577C10.0111 15.3467 9.94438 15.3432 9.87838 15.3432C9.47 15.3432 9.07881 15.5248 8.8155 15.8451C8.52125 16.2033 7.68388 17.0029 6.69456 17.5907C6.96269 16.9754 7.17237 16.2858 7.18681 15.5749C7.19094 15.5309 7.193 15.4862 7.193 15.4484C7.193 14.9314 6.90356 14.4591 6.44362 14.224C3.89575 12.9232 2.375 10.8298 2.375 8.625C2.375 4.83413 6.6925 1.75 12 1.75C17.3061 1.75 21.625 4.83413 21.625 8.625C21.625 12.4159 17.3068 15.5 12 15.5Z" fill="#232F3E" stroke="#232F3E" stroke-width="0.5"/>
</svg>
