<svg width="12" height="12" viewBox="0 0 12 12" fill="none" xmlns="http://www.w3.org/2000/svg">
<circle cx="6" cy="6" r="6" fill="black" fill-opacity="0.54"/>
<path d="M6.56036 6.00036L8.52036 4.04036C8.59338 3.96584 8.63405 3.86552 8.63352 3.76119C8.633 3.65686 8.59132 3.55695 8.51754 3.48317C8.44377 3.4094 8.34386 3.36772 8.23953 3.36719C8.1352 3.36667 8.03487 3.40733 7.96036 3.48036L6.00036 5.44036L4.04036 3.48036C3.96584 3.40733 3.86552 3.36667 3.76119 3.36719C3.65686 3.36772 3.55695 3.4094 3.48317 3.48317C3.4094 3.55695 3.36772 3.65686 3.36719 3.76119C3.36667 3.86552 3.40733 3.96584 3.48036 4.04036L5.44036 6.00036L3.48036 7.96036C3.40733 8.03487 3.36667 8.1352 3.36719 8.23953C3.36772 8.34386 3.4094 8.44377 3.48317 8.51754C3.55695 8.59132 3.65686 8.633 3.76119 8.63352C3.86552 8.63405 3.96584 8.59338 4.04036 8.52036L6.00036 6.56036L7.96036 8.52036C8.03487 8.59338 8.1352 8.63405 8.23953 8.63352C8.34386 8.633 8.44377 8.59132 8.51754 8.51754C8.59132 8.44377 8.633 8.34386 8.63352 8.23953C8.63405 8.1352 8.59338 8.03487 8.52036 7.96036L6.56036 6.00036Z" fill="white"/>
</svg>
