<svg width="24" height="26" viewBox="0 0 24 26" fill="none" xmlns="http://www.w3.org/2000/svg">
<path d="M12 0.1875C13.0377 0.187432 14.036 0.584443 14.7903 1.29709C15.5445 2.00974 15.9975 2.98399 16.0562 4.02L16.0625 4.25H22.625C22.8625 4.25007 23.0912 4.34031 23.2647 4.50247C23.4383 4.66463 23.5438 4.88662 23.56 5.1236C23.5762 5.36058 23.5019 5.59487 23.352 5.77912C23.2021 5.96338 22.9878 6.08387 22.7525 6.11625L22.625 6.125H21.63L20.03 22.4C19.9498 23.2114 19.5839 23.9679 18.9975 24.5343C18.4111 25.1008 17.6424 25.4404 16.8288 25.4925L16.6087 25.5H7.39125C6.57558 25.5 5.78649 25.2099 5.16501 24.6816C4.54352 24.1533 4.13015 23.4213 3.99875 22.6163L3.97 22.3987L2.36875 6.125H1.375C1.14845 6.12499 0.929572 6.04295 0.758837 5.89404C0.588101 5.74514 0.47706 5.53944 0.44625 5.315L0.4375 5.1875C0.43751 4.96095 0.519553 4.74207 0.668459 4.57134C0.817364 4.4006 1.02306 4.28956 1.2475 4.25875L1.375 4.25H7.9375C7.9375 3.17256 8.36551 2.13925 9.12738 1.37738C9.88925 0.615512 10.9226 0.1875 12 0.1875ZM19.7463 6.125H4.2525L5.83625 22.215C5.87132 22.574 6.02953 22.9098 6.28403 23.1655C6.53853 23.4211 6.87364 23.5808 7.2325 23.6175L7.39125 23.625H16.6087C17.3588 23.625 17.995 23.0937 18.14 22.3725L18.165 22.215L19.745 6.125H19.7463ZM14.1875 9.5625C14.414 9.56251 14.6329 9.64455 14.8037 9.79346C14.9744 9.94236 15.0854 10.1481 15.1163 10.3725L15.125 10.5V19.25C15.1249 19.4875 15.0347 19.7162 14.8725 19.8897C14.7104 20.0633 14.4884 20.1688 14.2514 20.185C14.0144 20.2012 13.7801 20.1269 13.5959 19.977C13.4116 19.8271 13.2911 19.6128 13.2587 19.3775L13.25 19.25V10.5C13.25 10.2514 13.3488 10.0129 13.5246 9.83709C13.7004 9.66127 13.9389 9.5625 14.1875 9.5625ZM9.8125 9.5625C10.039 9.56251 10.2579 9.64455 10.4287 9.79346C10.5994 9.94236 10.7104 10.1481 10.7413 10.3725L10.75 10.5V19.25C10.7499 19.4875 10.6597 19.7162 10.4975 19.8897C10.3354 20.0633 10.1134 20.1688 9.8764 20.185C9.63942 20.2012 9.40514 20.1269 9.22088 19.977C9.03662 19.8271 8.91613 19.6128 8.88375 19.3775L8.875 19.25V10.5C8.875 10.2514 8.97377 10.0129 9.14959 9.83709C9.3254 9.66127 9.56386 9.5625 9.8125 9.5625ZM12 2.0625C11.451 2.06252 10.9221 2.26896 10.5183 2.64085C10.1144 3.01274 9.86517 3.52287 9.82 4.07L9.8125 4.25H14.1875C14.1875 3.66984 13.957 3.11344 13.5468 2.7032C13.1366 2.29297 12.5802 2.0625 12 2.0625Z" fill="#FF0000"/>
</svg>
