<svg width="28" height="28" viewBox="0 0 28 28" fill="none" xmlns="http://www.w3.org/2000/svg">
<path d="M27.2052 5.04101L22.959 0.794846C22.4465 0.282254 21.765 0 21.0402 0C20.3154 0 19.6339 0.282255 19.1214 0.794829L1.34679 18.5693C1.17808 18.738 1.06932 18.9575 1.03726 19.1939L0.00991381 26.7626C-0.035879 27.1002 0.078603 27.4397 0.319486 27.6805C0.525388 27.8864 0.803381 28 1.09063 28C1.13936 28 1.18841 27.9967 1.23741 27.9901L8.80606 26.9628C9.04252 26.9307 9.26192 26.822 9.43064 26.6532L27.2052 8.87875C27.7178 8.36621 28 7.68472 28 6.95991C28 6.23502 27.7177 5.55355 27.2052 5.04101ZM8.14824 24.8506L2.3642 25.6357L3.14931 19.8517L15.7449 7.25623L20.7437 12.2552L8.14824 24.8506ZM25.6627 7.33624L22.2862 10.7127L17.2873 5.71375L20.6638 2.33732C20.7994 2.20166 20.9578 2.18139 21.0402 2.18139C21.1225 2.18139 21.2809 2.20166 21.4166 2.33732L25.6628 6.58349C25.7984 6.71914 25.8186 6.87753 25.8186 6.95986C25.8186 7.04218 25.7984 7.20058 25.6627 7.33624Z" fill="#0076B9"/>
</svg>
