<svg width="22" height="12" viewBox="0 0 22 12" fill="none" xmlns="http://www.w3.org/2000/svg">
<path d="M6.57512 11.25C6.7148 11.1095 6.79321 10.9194 6.79321 10.7212C6.79321 10.5231 6.7148 10.333 6.57512 10.1925L3.12512 6.74999H20.7876C20.9865 6.74999 21.1773 6.67098 21.3179 6.53032C21.4586 6.38967 21.5376 6.1989 21.5376 5.99999C21.5376 5.80108 21.4586 5.61031 21.3179 5.46966C21.1773 5.32901 20.9865 5.24999 20.7876 5.24999H3.14762L6.57512 1.82249C6.71734 1.68127 6.79763 1.48932 6.79834 1.28889C6.79904 1.08846 6.72009 0.895965 6.57887 0.753743C6.43764 0.61152 6.2457 0.531226 6.04527 0.530522C5.84484 0.529819 5.65234 0.608765 5.51012 0.749993L0.740115 5.52749C0.614167 5.65399 0.543457 5.82523 0.543457 6.00374C0.543457 6.18225 0.614167 6.35349 0.740115 6.47999L5.51012 11.25C5.57984 11.3203 5.66279 11.3761 5.75418 11.4142C5.84558 11.4522 5.94361 11.4718 6.04262 11.4718C6.14162 11.4718 6.23965 11.4522 6.33105 11.4142C6.42244 11.3761 6.50539 11.3203 6.57512 11.25Z" fill="#111111"/>
</svg>
