<svg width="22" height="24" viewBox="0 0 22 24" fill="none" xmlns="http://www.w3.org/2000/svg">
<path d="M21.4487 20.3848L21.4491 20.3854C21.5152 20.4967 21.5171 20.6363 21.4536 20.7498C21.3904 20.8628 21.2753 20.9286 21.1538 20.9286H14.2643H13.8764L13.78 21.3044C13.4552 22.5712 12.3315 23.5 10.9998 23.5C9.66892 23.5 8.54449 22.5712 8.21968 21.3044L8.12332 20.9286H7.73535H0.845907C0.723624 20.9286 0.608617 20.8622 0.546659 20.7517C0.482427 20.6355 0.485241 20.4962 0.550584 20.3863L0.550977 20.3856L2.96846 16.303L3.03823 16.1852V16.0483V10.2857C3.03823 7.17663 4.83292 4.31058 7.60173 2.98301C7.77107 2.90215 7.97623 2.97275 8.05975 3.15118C8.14562 3.33546 8.06517 3.54887 7.89417 3.63079L7.89406 3.63085C5.36188 4.84475 3.73055 7.45657 3.73055 10.2857V16.2857C3.73055 16.3524 3.71303 16.4157 3.67983 16.4715L3.67935 16.4723L1.91003 19.4595L1.46294 20.2143H2.34023H19.6586H20.5357L20.0889 19.4596L18.3204 16.4724L18.3198 16.4715C18.2866 16.4157 18.2691 16.3524 18.2691 16.2857V10.2857C18.2691 6.23481 15.0145 2.92857 10.9998 2.92857C10.815 2.92857 10.6537 2.77453 10.6537 2.57143V0.857143C10.6537 0.654044 10.815 0.5 10.9998 0.5C11.1847 0.5 11.346 0.654044 11.346 0.857143V1.758V2.21005L11.7958 2.25547C15.8078 2.66059 18.9614 6.10265 18.9614 10.2857V16.0483V16.1852L19.0312 16.3031L21.4487 20.3848ZM9.54275 20.9286H8.67795L9.10943 21.678C9.48508 22.3305 10.1834 22.7857 10.9998 22.7857C11.8162 22.7857 12.5148 22.3306 12.8897 21.6775L13.3196 20.9286H12.4561H9.54275Z" fill="#48A3C6" stroke="#232F3E"/>
<circle cx="17" cy="5" r="5" fill="#E47911"/>
</svg>
