<svg width="22" height="12" viewBox="0 0 22 12" fill="none" xmlns="http://www.w3.org/2000/svg">
<path d="M15.4249 11.25C15.2852 11.1095 15.2068 10.9194 15.2068 10.7212C15.2068 10.5231 15.2852 10.333 15.4249 10.1925L18.8749 6.74999H1.21239C1.01347 6.74999 0.822706 6.67098 0.682055 6.53032C0.541403 6.38967 0.462385 6.1989 0.462385 5.99999C0.462385 5.80108 0.541403 5.61031 0.682055 5.46966C0.822706 5.32901 1.01347 5.24999 1.21239 5.24999H18.8524L15.4249 1.82249C15.2827 1.68127 15.2024 1.48932 15.2017 1.28889C15.201 1.08846 15.2799 0.895965 15.4211 0.753743C15.5624 0.61152 15.7543 0.531226 15.9547 0.530522C16.1552 0.529819 16.3477 0.608765 16.4899 0.749993L21.2599 5.52749C21.3858 5.65399 21.4565 5.82523 21.4565 6.00374C21.4565 6.18225 21.3858 6.35349 21.2599 6.47999L16.4899 11.25C16.4202 11.3203 16.3372 11.3761 16.2458 11.4142C16.1544 11.4522 16.0564 11.4718 15.9574 11.4718C15.8584 11.4718 15.7603 11.4522 15.669 11.4142C15.5776 11.3761 15.4946 11.3203 15.4249 11.25Z" fill="#111111"/>
</svg>
