<svg width="14" height="9" viewBox="0 0 14 9" fill="none" xmlns="http://www.w3.org/2000/svg">
<path d="M6.99211 9C7.15933 9 7.31611 8.9712 7.46243 8.91361C7.60875 8.85694 7.74462 8.76004 7.87004 8.62291L13.6707 2.28103C13.9006 2.02964 14.0101 1.71517 13.9993 1.33763C13.9892 0.960999 13.8692 0.646989 13.6393 0.395599C13.4094 0.144209 13.1167 0.0185133 12.7614 0.0185133C12.406 0.0185134 12.1134 0.144209 11.8834 0.395599L6.99211 5.74335L2.06941 0.361319C1.83948 0.109929 1.55185 -0.0102807 1.20653 0.00068912C0.862045 0.012573 0.574838 0.14421 0.344903 0.3956C0.114968 0.646991 -7.64936e-07 0.966942 -7.30968e-07 1.35545C-6.96999e-07 1.74397 0.114969 2.06392 0.344903 2.31531L6.11417 8.62291C6.23959 8.76004 6.37546 8.85694 6.52179 8.91361C6.66811 8.9712 6.82488 9 6.99211 9V9Z" fill="#37475A"/>
</svg>
