<svg width="25" height="25" viewBox="0 0 25 25" fill="none" xmlns="http://www.w3.org/2000/svg">
<path d="M12.5 1.5625C15.4008 1.5625 18.1828 2.71484 20.234 4.76602C22.2852 6.8172 23.4375 9.59919 23.4375 12.5C23.4375 15.4008 22.2852 18.1828 20.234 20.234C18.1828 22.2852 15.4008 23.4375 12.5 23.4375C9.59919 23.4375 6.8172 22.2852 4.76602 20.234C2.71484 18.1828 1.5625 15.4008 1.5625 12.5C1.5625 9.59919 2.71484 6.8172 4.76602 4.76602C6.8172 2.71484 9.59919 1.5625 12.5 1.5625ZM12.5 21.875C14.9864 21.875 17.371 20.8873 19.1291 19.1291C20.8873 17.371 21.875 14.9864 21.875 12.5C21.875 10.0136 20.8873 7.62903 19.1291 5.87087C17.371 4.11272 14.9864 3.125 12.5 3.125C10.0136 3.125 7.62903 4.11272 5.87087 5.87087C4.11272 7.62903 3.125 10.0136 3.125 12.5C3.125 14.9864 4.11272 17.371 5.87087 19.1291C7.62903 20.8873 10.0136 21.875 12.5 21.875ZM11.3281 15.8297L16.3234 12.5L11.3281 9.17031V15.8297ZM11.5875 7.46406L17.6781 11.525C17.8386 11.632 17.9702 11.777 18.0612 11.9471C18.1523 12.1172 18.1999 12.3071 18.1999 12.5C18.1999 12.6929 18.1523 12.8828 18.0612 13.0529C17.9702 13.223 17.8386 13.368 17.6781 13.475L11.5875 17.5359C11.411 17.6536 11.2059 17.7211 10.9941 17.7314C10.7822 17.7416 10.5716 17.6942 10.3846 17.5941C10.1976 17.494 10.0412 17.345 9.93222 17.1631C9.82322 16.9812 9.76564 16.773 9.76562 16.5609V8.4375C9.76564 8.2254 9.82322 8.01728 9.93222 7.83534C10.0412 7.65339 10.1976 7.50444 10.3846 7.40436C10.5716 7.30429 10.7822 7.25684 10.9941 7.26708C11.2059 7.27732 11.411 7.34486 11.5875 7.4625V7.46406Z" fill="#CCCCCC"/>
</svg>
